<?xml version="1.0" encoding="UTF-8" standalone="no"?>
<!-- Created with Inkscape (http://www.inkscape.org/) -->

<svg
   xmlns:osb="http://www.openswatchbook.org/uri/2009/osb"
   xmlns:dc="http://purl.org/dc/elements/1.1/"
   xmlns:cc="http://creativecommons.org/ns#"
   xmlns:rdf="http://www.w3.org/1999/02/22-rdf-syntax-ns#"
   xmlns:svg="http://www.w3.org/2000/svg"
   xmlns="http://www.w3.org/2000/svg"
   xmlns:sodipodi="http://sodipodi.sourceforge.net/DTD/sodipodi-0.dtd"
   xmlns:inkscape="http://www.inkscape.org/namespaces/inkscape"
   width="210mm"
   height="297mm"
   viewBox="0 0 210 297"
   version="1.1"
   id="svg8"
   sodipodi:docname="voxels.svg"
   inkscape:version="0.92.2 2405546, 2018-03-11">
  <defs
     id="defs2">
    <linearGradient
       id="linearGradient7041"
       osb:paint="solid">
      <stop
         style="stop-color:#000000;stop-opacity:1;"
         offset="0"
         id="stop7039" />
    </linearGradient>
    <inkscape:perspective
       sodipodi:type="inkscape:persp3d"
       inkscape:vp_x="147.55045 : 150.5814 : 1"
       inkscape:vp_y="-999.99995 : 3.061617e-13 : 0"
       inkscape:vp_z="149.95588 : 353.89968 : 1"
       inkscape:persp3d-origin="199.45586 : 248.89968 : 1"
       id="perspective1368" />
  </defs>
  <sodipodi:namedview
     id="base"
     pagecolor="#ffffff"
     bordercolor="#666666"
     borderopacity="1.0"
     inkscape:pageopacity="0.0"
     inkscape:pageshadow="2"
     inkscape:zoom="0.7"
     inkscape:cx="1.8794143"
     inkscape:cy="372.8637"
     inkscape:document-units="mm"
     inkscape:current-layer="layer1"
     showgrid="true"
     inkscape:snap-bbox="true"
     inkscape:window-width="1920"
     inkscape:window-height="1018"
     inkscape:window-x="0"
     inkscape:window-y="25"
     inkscape:window-maximized="1"
     inkscape:snap-global="false">
    <inkscape:grid
       type="axonomgrid"
       id="grid1482"
       units="mm"
       empspacing="4"
       gridanglex="0"
       gridanglez="45"
       empcolor="#3fa7d2"
       empopacity="0.18431373" />
  </sodipodi:namedview>
  <metadata
     id="metadata5">
    <rdf:RDF>
      <cc:Work
         rdf:about="">
        <dc:format>image/svg+xml</dc:format>
        <dc:type
           rdf:resource="http://purl.org/dc/dcmitype/StillImage" />
        <dc:title></dc:title>
      </cc:Work>
    </rdf:RDF>
  </metadata>
  <g
     inkscape:label="Layer 1"
     inkscape:groupmode="layer"
     id="layer1">
    <path
       style="fill:#000000;fill-opacity:0.58984375;stroke:#000000;stroke-width:0.26458332px;stroke-linecap:butt;stroke-linejoin:miter;stroke-opacity:1"
       d="m 32,109 8,-8 H 64.000002 L 56,109 Z"
       id="path5320"
       inkscape:connector-curvature="0" />
    <path
       style="fill:none;stroke:#000000;stroke-width:0.26458332px;stroke-linecap:butt;stroke-linejoin:miter;stroke-opacity:1"
       d="m 32.000002,109 v 4.8 4.8 4.8 4.8 4.8 h 7.999999 8 8.000001 V 123.4 109 Z"
       id="path5197"
       inkscape:connector-curvature="0" />
    <path
       style="fill:#000000;fill-opacity:0.5859375;stroke:#000000;stroke-width:0.26458332px;stroke-linecap:butt;stroke-linejoin:miter;stroke-opacity:1"
       d="m 56.000001,109 8,-8 H 88 l -8,8 z"
       id="path5555"
       inkscape:connector-curvature="0" />
    <path
       style="fill:#000000;fill-opacity:0.71484375;stroke:#000000;stroke-width:0.26458332px;stroke-linecap:butt;stroke-linejoin:miter;stroke-opacity:1"
       d="m 80,133 8,-8 v -24 l -8,8 z"
       id="path5553"
       inkscape:connector-curvature="0" />
    <path
       style="fill:none;stroke:#000000;stroke-width:0.26458332px;stroke-linecap:butt;stroke-linejoin:miter;stroke-opacity:1"
       d="m 56.000003,109 v 4.8 4.8 4.8 4.8 4.8 h 7.999999 8 H 80 V 123.4 109 Z"
       id="path5197-2"
       inkscape:connector-curvature="0" />
    <path
       style="fill:#000000;stroke:#000000;stroke-width:0.26458332px;stroke-linecap:butt;stroke-linejoin:miter;stroke-opacity:1;fill-opacity:0.58984375"
       d="M 80.000001,133 88,125 h 24 l -8,8 z"
       id="path5561"
       inkscape:connector-curvature="0" />
    <path
       style="fill:#000000;fill-opacity:0.71484375;stroke:#000000;stroke-width:0.26458332px;stroke-linecap:butt;stroke-linejoin:miter;stroke-opacity:1"
       d="m 104,157 8,-8 v -24 l -8,8 z"
       id="path5559"
       inkscape:connector-curvature="0" />
    <path
       style="fill:none;stroke:#000000;stroke-width:0.26458332px;stroke-linecap:butt;stroke-linejoin:miter;stroke-opacity:1"
       d="m 80.000003,133 v 4.8 4.8 4.8 4.8 4.8 H 88 h 8 8 V 147.4 133 Z"
       id="path5197-6"
       inkscape:connector-curvature="0" />
    <path
       style="fill:#000000;stroke:#000000;stroke-width:0.26458332px;stroke-linecap:butt;stroke-linejoin:miter;stroke-opacity:1;fill-opacity:0.58984375"
       d="m 104,157 8,-8 h 24 l -8,8 z"
       id="path5567"
       inkscape:connector-curvature="0" />
    <path
       style="fill:#000000;fill-opacity:0.71484375;stroke:#000000;stroke-width:0.26458332px;stroke-linecap:butt;stroke-linejoin:miter;stroke-opacity:1"
       d="m 128,181 8,-8 v -24 l -8,8 z"
       id="path5565"
       inkscape:connector-curvature="0" />
    <path
       style="fill:none;stroke:#000000;stroke-width:0.26458332px;stroke-linecap:butt;stroke-linejoin:miter;stroke-opacity:1"
       d="m 104,157 v 4.8 4.8 4.8 4.8 4.8 h 8 8 8 V 171.4 157 Z"
       id="path5197-4"
       inkscape:connector-curvature="0" />
    <path
       style="fill:none;stroke:#000000;stroke-width:0.26458332px;stroke-linecap:butt;stroke-linejoin:miter;stroke-opacity:1"
       d="m 104,181 v 4.8 4.8 4.8 4.8 4.8 h 8 8 8 V 195.4 181 Z"
       id="path5197-5"
       inkscape:connector-curvature="0" />
    <path
       style="fill:#000000;stroke:#000000;stroke-width:0.26458332px;stroke-linecap:butt;stroke-linejoin:miter;stroke-opacity:1;fill-opacity:0.58984375"
       d="m 128,181 8,-8 h 24 l -8,8 z"
       id="path5397"
       inkscape:connector-curvature="0" />
    <path
       style="fill:none;stroke:#000000;stroke-width:0.26458332px;stroke-linecap:butt;stroke-linejoin:miter;stroke-opacity:1"
       d="m 128,181 v 4.8 4.8 4.8 4.8 4.8 h 8 8 8 V 195.4 181 Z"
       id="path5197-20"
       inkscape:connector-curvature="0" />
    <path
       style="fill:#000000;stroke:#000000;stroke-width:0.26458332px;stroke-linecap:butt;stroke-linejoin:miter;stroke-opacity:1;fill-opacity:0.58984375"
       d="m 152,181 8,-8 h 24 l -8,8 z"
       id="path5573"
       inkscape:connector-curvature="0" />
    <path
       style="fill:#000000;fill-opacity:0.71484375;stroke:#000000;stroke-width:0.26458332px;stroke-linecap:butt;stroke-linejoin:miter;stroke-opacity:1"
       d="m 176,205 8,-8 v -24 l -8,8 z"
       id="path5571"
       inkscape:connector-curvature="0" />
    <path
       style="fill:none;stroke:#000000;stroke-width:0.26458332px;stroke-linecap:butt;stroke-linejoin:miter;stroke-opacity:1"
       d="m 152,181 v 4.8 4.8 4.8 4.8 4.8 h 8 8 8 V 195.4 181 Z"
       id="path5197-29"
       inkscape:connector-curvature="0" />
    <path
       style="fill:none;stroke:#000000;stroke-width:0.26458332px;stroke-linecap:butt;stroke-linejoin:miter;stroke-opacity:1"
       d="m 80,205 v 4.8 4.8 4.8 4.8 4.8 h 8 8 8 V 219.4 205 Z"
       id="path5197-0"
       inkscape:connector-curvature="0" />
    <path
       style="fill:#000000;stroke:#000000;stroke-width:0.26458332px;stroke-linecap:butt;stroke-linejoin:miter;stroke-opacity:1;fill-opacity:0.58984375"
       d="m 47.999998,237 8,-8 H 80 l -8,8 z"
       id="path5579"
       inkscape:connector-curvature="0" />
    <path
       style="fill:#000000;stroke:#000000;stroke-width:0.26458332px;stroke-linecap:butt;stroke-linejoin:miter;stroke-opacity:1;fill-opacity:0.71484375"
       d="m 72,261 8,-8 v -24 l -8,8 z"
       id="path5577"
       inkscape:connector-curvature="0" />
    <path
       style="fill:none;stroke:#000000;stroke-width:0.26458332px;stroke-linecap:butt;stroke-linejoin:miter;stroke-opacity:1"
       d="m 48,237 v 4.8 4.8 4.8 4.8 4.8 h 7.999999 8 H 72 V 251.4 237 Z"
       id="path5197-9"
       inkscape:connector-curvature="0" />
    <path
       style="opacity:1;fill:none;fill-opacity:1;stroke:#d10300;stroke-width:0.65099996;stroke-miterlimit:4;stroke-dasharray:none;stroke-opacity:1"
       id="path5343"
       sodipodi:type="arc"
       sodipodi:cx="43.403416"
       sodipodi:cy="119.88782"
       sodipodi:rx="6.2366071"
       sodipodi:ry="6.5200896"
       sodipodi:start="0"
       sodipodi:end="6.2745395"
       sodipodi:open="true"
       d="m 49.640023,119.88782 a 6.2366071,6.5200896 0 0 1 -6.223127,6.52007 6.2366071,6.5200896 0 0 1 -6.250029,-6.49189 6.2366071,6.5200896 0 0 1 6.196109,-6.54814 6.2366071,6.5200896 0 0 1 6.276814,6.46359" />
    <path
       style="opacity:1;fill:none;fill-opacity:1;stroke:#d403e5;stroke-width:0.65099996;stroke-miterlimit:4;stroke-dasharray:none;stroke-opacity:1"
       id="path5343-4"
       sodipodi:type="arc"
       sodipodi:cx="-127.26092"
       sodipodi:cy="124.23286"
       sodipodi:rx="6.2366071"
       sodipodi:ry="6.5200896"
       sodipodi:start="0"
       sodipodi:end="6.2745395"
       sodipodi:open="true"
       d="m -121.02431,124.23286 a 6.2366071,6.5200896 0 0 1 -6.22313,6.52007 6.2366071,6.5200896 0 0 1 -6.25003,-6.49189 6.2366071,6.5200896 0 0 1 6.19611,-6.54814 6.2366071,6.5200896 0 0 1 6.27682,6.46359" />
    <path
       style="opacity:1;fill:none;fill-opacity:1;stroke:#010000;stroke-width:0.65099996;stroke-miterlimit:4;stroke-dasharray:none;stroke-opacity:1"
       id="path5343-4-5"
       sodipodi:type="arc"
       sodipodi:cx="68.160011"
       sodipodi:cy="120.25456"
       sodipodi:rx="6.2366071"
       sodipodi:ry="6.5200896"
       sodipodi:start="0"
       sodipodi:end="6.2745395"
       sodipodi:open="true"
       d="m 74.396618,120.25456 a 6.2366071,6.5200896 0 0 1 -6.223127,6.52008 6.2366071,6.5200896 0 0 1 -6.250029,-6.49189 6.2366071,6.5200896 0 0 1 6.196109,-6.54814 6.2366071,6.5200896 0 0 1 6.276814,6.46358" />
    <path
       style="fill:#000000;stroke:#000000;stroke-width:0.26458332px;stroke-linecap:butt;stroke-linejoin:miter;stroke-opacity:1;fill-opacity:0.58984375"
       d="M 79.999998,205 88,197 h 16 v 8 z"
       id="path5389"
       inkscape:connector-curvature="0" />
    <path
       style="fill:#000000;fill-opacity:0.71484375;stroke:#000000;stroke-width:0.26458332px;stroke-linecap:butt;stroke-linejoin:miter;stroke-opacity:1"
       d="m 104,229 8,-8 v -16 h -8 z"
       id="path5391"
       inkscape:connector-curvature="0" />
    <path
       style="opacity:1;fill:none;fill-opacity:1;stroke:#010000;stroke-width:0.65099996;stroke-miterlimit:4;stroke-dasharray:none;stroke-opacity:1"
       id="path5343-4-5-1"
       sodipodi:type="arc"
       sodipodi:cx="92.207985"
       sodipodi:cy="144.3891"
       sodipodi:rx="6.2366071"
       sodipodi:ry="6.5200896"
       sodipodi:start="0"
       sodipodi:end="6.2745395"
       sodipodi:open="true"
       d="m 98.444592,144.3891 a 6.2366071,6.5200896 0 0 1 -6.223127,6.52007 6.2366071,6.5200896 0 0 1 -6.250029,-6.49189 6.2366071,6.5200896 0 0 1 6.196109,-6.54813 6.2366071,6.5200896 0 0 1 6.276814,6.46358" />
    <path
       style="opacity:1;fill:none;fill-opacity:1;stroke:#010000;stroke-width:0.65099996;stroke-miterlimit:4;stroke-dasharray:none;stroke-opacity:1"
       id="path5343-4-5-0"
       sodipodi:type="arc"
       sodipodi:cx="92.475258"
       sodipodi:cy="216.28461"
       sodipodi:rx="6.2366071"
       sodipodi:ry="6.5200896"
       sodipodi:start="0"
       sodipodi:end="6.2745395"
       sodipodi:open="true"
       d="m 98.711865,216.28461 a 6.2366071,6.5200896 0 0 1 -6.223127,6.52007 6.2366071,6.5200896 0 0 1 -6.250029,-6.49189 6.2366071,6.5200896 0 0 1 6.196109,-6.54814 6.2366071,6.5200896 0 0 1 6.276814,6.46359" />
    <path
       style="opacity:1;fill:none;fill-opacity:1;stroke:#d10300;stroke-width:0.65099996;stroke-miterlimit:4;stroke-dasharray:none;stroke-opacity:1"
       id="path5343-3"
       sodipodi:type="arc"
       sodipodi:cx="164.10349"
       sodipodi:cy="192.49763"
       sodipodi:rx="6.2366071"
       sodipodi:ry="6.5200896"
       sodipodi:start="0"
       sodipodi:end="6.2745395"
       sodipodi:open="true"
       d="m 170.34009,192.49763 a 6.2366071,6.5200896 0 0 1 -6.22312,6.52008 6.2366071,6.5200896 0 0 1 -6.25003,-6.49189 6.2366071,6.5200896 0 0 1 6.19611,-6.54814 6.2366071,6.5200896 0 0 1 6.27681,6.46358" />
    <path
       style="opacity:1;fill:none;fill-opacity:1;stroke:#d10300;stroke-width:0.65099996;stroke-miterlimit:4;stroke-dasharray:none;stroke-opacity:1"
       id="path5343-7"
       sodipodi:type="arc"
       sodipodi:cx="60.402912"
       sodipodi:cy="247.8224"
       sodipodi:rx="6.2366071"
       sodipodi:ry="6.5200896"
       sodipodi:start="0"
       sodipodi:end="6.2745395"
       sodipodi:open="true"
       d="m 66.639519,247.8224 a 6.2366071,6.5200896 0 0 1 -6.223127,6.52008 6.2366071,6.5200896 0 0 1 -6.250029,-6.49189 6.2366071,6.5200896 0 0 1 6.196109,-6.54814 6.2366071,6.5200896 0 0 1 6.276814,6.46358" />
    <path
       style="opacity:1;fill:none;fill-opacity:1;stroke:#2303e5;stroke-width:0.65099996;stroke-miterlimit:4;stroke-dasharray:none;stroke-opacity:1"
       id="path5343-4-8"
       sodipodi:type="arc"
       sodipodi:cx="115.99498"
       sodipodi:cy="167.64154"
       sodipodi:rx="6.2366071"
       sodipodi:ry="6.5200896"
       sodipodi:start="0"
       sodipodi:end="6.2745395"
       sodipodi:open="true"
       d="m 122.23159,167.64154 a 6.2366071,6.5200896 0 0 1 -6.22313,6.52007 6.2366071,6.5200896 0 0 1 -6.25003,-6.49188 6.2366071,6.5200896 0 0 1 6.19611,-6.54814 6.2366071,6.5200896 0 0 1 6.27681,6.46358" />
    <path
       style="opacity:1;fill:none;fill-opacity:1;stroke:#2303e5;stroke-width:0.65099996;stroke-miterlimit:4;stroke-dasharray:none;stroke-opacity:1"
       id="path5343-4-86"
       sodipodi:type="arc"
       sodipodi:cx="140.3165"
       sodipodi:cy="192.49762"
       sodipodi:rx="6.2366071"
       sodipodi:ry="6.5200896"
       sodipodi:start="0"
       sodipodi:end="6.2745395"
       sodipodi:open="true"
       d="m 146.5531,192.49762 a 6.2366071,6.5200896 0 0 1 -6.22312,6.52007 6.2366071,6.5200896 0 0 1 -6.25003,-6.49188 6.2366071,6.5200896 0 0 1 6.19611,-6.54814 6.2366071,6.5200896 0 0 1 6.27681,6.46358" />
    <path
       style="opacity:1;fill:none;fill-opacity:1;stroke:#d403e5;stroke-width:0.65099996;stroke-miterlimit:4;stroke-dasharray:none;stroke-opacity:1"
       id="path5343-4-0"
       sodipodi:type="arc"
       sodipodi:cx="-36.285713"
       sodipodi:cy="172.64583"
       sodipodi:rx="6.2366071"
       sodipodi:ry="6.5200896"
       sodipodi:start="0"
       sodipodi:end="6.2745395"
       sodipodi:open="true"
       d="m -30.049106,172.64583 a 6.2366071,6.5200896 0 0 1 -6.223127,6.52007 6.2366071,6.5200896 0 0 1 -6.250029,-6.49189 6.2366071,6.5200896 0 0 1 6.196109,-6.54813 6.2366071,6.5200896 0 0 1 6.276814,6.46358" />
    <path
       style="opacity:1;fill:none;fill-opacity:1;stroke:#2303e5;stroke-width:0.65099996;stroke-miterlimit:4;stroke-dasharray:none;stroke-opacity:1"
       id="path5343-4-86-4"
       sodipodi:type="arc"
       sodipodi:cx="116.79465"
       sodipodi:cy="192.67857"
       sodipodi:rx="6.2366071"
       sodipodi:ry="6.5200896"
       sodipodi:start="0"
       sodipodi:end="6.2745395"
       sodipodi:open="true"
       d="m 123.03125,192.67857 a 6.2366071,6.5200896 0 0 1 -6.22312,6.52008 6.2366071,6.5200896 0 0 1 -6.25003,-6.49189 6.2366071,6.5200896 0 0 1 6.19611,-6.54814 6.2366071,6.5200896 0 0 1 6.27681,6.46358" />
  </g>
</svg>
