<?xml version="1.0" encoding="UTF-8" standalone="no"?>
<!-- Created with Inkscape (http://www.inkscape.org/) -->

<svg
   xmlns:dc="http://purl.org/dc/elements/1.1/"
   xmlns:cc="http://creativecommons.org/ns#"
   xmlns:rdf="http://www.w3.org/1999/02/22-rdf-syntax-ns#"
   xmlns:svg="http://www.w3.org/2000/svg"
   xmlns="http://www.w3.org/2000/svg"
   xmlns:sodipodi="http://sodipodi.sourceforge.net/DTD/sodipodi-0.dtd"
   xmlns:inkscape="http://www.inkscape.org/namespaces/inkscape"
   width="210mm"
   height="297mm"
   viewBox="0 0 210 297"
   version="1.1"
   id="svg8"
   sodipodi:docname="voxels_empty.svg"
   inkscape:version="0.92.2 2405546, 2018-03-11">
  <defs
     id="defs2">
    <inkscape:perspective
       sodipodi:type="inkscape:persp3d"
       inkscape:vp_x="147.55045 : 150.5814 : 1"
       inkscape:vp_y="-999.99995 : 3.061617e-13 : 0"
       inkscape:vp_z="149.95588 : 353.89968 : 1"
       inkscape:persp3d-origin="199.45586 : 248.89968 : 1"
       id="perspective1368" />
  </defs>
  <sodipodi:namedview
     id="base"
     pagecolor="#ffffff"
     bordercolor="#666666"
     borderopacity="1.0"
     inkscape:pageopacity="0.0"
     inkscape:pageshadow="2"
     inkscape:zoom="0.98994949"
     inkscape:cx="57.849352"
     inkscape:cy="534.12177"
     inkscape:document-units="mm"
     inkscape:current-layer="layer1"
     showgrid="true"
     inkscape:snap-bbox="true"
     inkscape:window-width="1920"
     inkscape:window-height="1018"
     inkscape:window-x="0"
     inkscape:window-y="25"
     inkscape:window-maximized="1"
     inkscape:snap-global="true">
    <inkscape:grid
       type="axonomgrid"
       id="grid1482"
       units="mm"
       empspacing="4"
       gridanglex="0"
       gridanglez="45"
       empcolor="#3fa7d2"
       empopacity="0.18431373" />
  </sodipodi:namedview>
  <metadata
     id="metadata5">
    <rdf:RDF>
      <cc:Work
         rdf:about="">
        <dc:format>image/svg+xml</dc:format>
        <dc:type
           rdf:resource="http://purl.org/dc/dcmitype/StillImage" />
        <dc:title></dc:title>
      </cc:Work>
    </rdf:RDF>
  </metadata>
  <g
     inkscape:label="Layer 1"
     inkscape:groupmode="layer"
     id="layer1">
    <path
       style="fill:none;fill-opacity:1;stroke:#000000;stroke-width:0.26458332px;stroke-linecap:butt;stroke-linejoin:miter;stroke-opacity:1"
       d="m 32,109 8,-8 H 64.000002 L 56,109 Z"
       id="path5320"
       inkscape:connector-curvature="0" />
    <path
       style="fill:none;stroke:#000000;stroke-width:0.26458332px;stroke-linecap:butt;stroke-linejoin:miter;stroke-opacity:1"
       d="m -29.233631,141.69345 8.000002,-8 v -24 l -8.000002,8 z"
       id="path5318"
       inkscape:connector-curvature="0" />
    <path
       style="fill:none;stroke:#000000;stroke-width:0.26458332px;stroke-linecap:butt;stroke-linejoin:miter;stroke-opacity:1"
       d="m 32.000002,109 v 4.8 4.8 4.8 4.8 4.8 h 7.999999 8 8.000001 V 123.4 109 Z"
       id="path5197"
       inkscape:connector-curvature="0" />
    <path
       id="path5197-2"
       style="fill:none;stroke:#000000;stroke-width:0.26458332px;stroke-linecap:butt;stroke-linejoin:miter;stroke-opacity:1"
       d="m 56.000001,109 8,-8 H 88 l -8,8 z M 80,133 l 8,-8 v -24 l -8,8 z M 56.000003,109 v 4.8 4.8 4.8 4.8 4.8 h 7.999999 8 H 80 V 123.4 109 Z"
       inkscape:connector-curvature="0" />
    <path
       id="path5197-6"
       style="fill:none;stroke:#000000;stroke-width:0.26458332px;stroke-linecap:butt;stroke-linejoin:miter;stroke-opacity:1"
       d="M 80.000001,133 88,125 h 24 l -8,8 z M 104,157 l 8,-8 v -24 l -8,8 z M 80.000003,133 v 4.8 4.8 4.8 4.8 4.8 H 88 h 8 8 V 147.4 133 Z"
       inkscape:connector-curvature="0" />
    <path
       id="path5197-4"
       style="fill:none;stroke:#000000;stroke-width:0.26458332px;stroke-linecap:butt;stroke-linejoin:miter;stroke-opacity:1"
       d="m 104,157 8,-8 h 24 l -8,8 z m 24,24 8,-8 v -24 l -8,8 z m -24,-24 v 4.8 4.8 4.8 4.8 4.8 h 8 8 8 V 171.4 157 Z"
       inkscape:connector-curvature="0" />
    <path
       style="fill:none;stroke:#000000;stroke-width:0.26458332px;stroke-linecap:butt;stroke-linejoin:miter;stroke-opacity:1"
       d="m -32.260417,158.6994 8,-8 h 24.00000019 l -7.99999999,8 z"
       id="path5379"
       inkscape:connector-curvature="0" />
    <path
       style="fill:none;stroke:#000000;stroke-width:0.26458332px;stroke-linecap:butt;stroke-linejoin:miter;stroke-opacity:1"
       d="m -76,185 8,-8 v -24 l -8,8 z"
       id="path5377"
       inkscape:connector-curvature="0" />
    <path
       style="fill:none;stroke:#000000;stroke-width:0.26458332px;stroke-linecap:butt;stroke-linejoin:miter;stroke-opacity:1"
       d="m 104,181 v 4.8 4.8 4.8 4.8 4.8 h 8 8 8 V 195.4 181 Z"
       id="path5197-5"
       inkscape:connector-curvature="0" />
    <path
       style="fill:none;stroke:#000000;stroke-width:0.26458332px;stroke-linecap:butt;stroke-linejoin:miter;stroke-opacity:1"
       d="m 128,181 8,-8 h 24 l -8,8 z"
       id="path5397"
       inkscape:connector-curvature="0" />
    <path
       style="fill:none;stroke:#000000;stroke-width:0.26458332px;stroke-linecap:butt;stroke-linejoin:miter;stroke-opacity:1"
       d="m -64,137 8,-8 v -24 l -8,8 z"
       id="path5395"
       inkscape:connector-curvature="0" />
    <path
       style="fill:none;stroke:#000000;stroke-width:0.26458332px;stroke-linecap:butt;stroke-linejoin:miter;stroke-opacity:1"
       d="m 128,181 v 4.8 4.8 4.8 4.8 4.8 h 8 8 8 V 195.4 181 Z"
       id="path5197-20"
       inkscape:connector-curvature="0" />
    <path
       id="path5197-29"
       style="fill:none;stroke:#000000;stroke-width:0.26458332px;stroke-linecap:butt;stroke-linejoin:miter;stroke-opacity:1"
       d="m 152,181 8,-8 h 24 l -8,8 z m 24,24 8,-8 v -24 l -8,8 z m -24,-24 v 4.8 4.8 4.8 4.8 4.8 h 8 8 8 V 195.4 181 Z"
       inkscape:connector-curvature="0" />
    <path
       style="fill:none;stroke:#000000;stroke-width:0.26458332px;stroke-linecap:butt;stroke-linejoin:miter;stroke-opacity:1"
       d="m -47.999996,181 8,-8 H -16 l -8,8 z"
       id="path5385"
       inkscape:connector-curvature="0" />
    <path
       style="fill:none;stroke:#000000;stroke-width:0.26458332px;stroke-linecap:butt;stroke-linejoin:miter;stroke-opacity:1"
       d="m -40,225 8,-8 v -24 l -8,8 z"
       id="path5383"
       inkscape:connector-curvature="0" />
    <path
       style="fill:none;stroke:#000000;stroke-width:0.26458332px;stroke-linecap:butt;stroke-linejoin:miter;stroke-opacity:1"
       d="m 80,205 v 4.8 4.8 4.8 4.8 4.8 h 8 8 8 V 219.4 205 Z"
       id="path5197-0"
       inkscape:connector-curvature="0" />
    <path
       id="path5197-9"
       style="fill:none;stroke:#000000;stroke-width:0.26458332px;stroke-linecap:butt;stroke-linejoin:miter;stroke-opacity:1"
       d="m 47.999998,237 8,-8 H 80 l -8,8 z M 72,261 l 8,-8 v -24 l -8,8 z M 48,237 v 4.8 4.8 4.8 4.8 4.8 h 7.999999 8 H 72 V 251.4 237 Z"
       inkscape:connector-curvature="0" />
    <path
       style="opacity:1;fill:none;fill-opacity:1;stroke:#d10300;stroke-width:0.65099996;stroke-miterlimit:4;stroke-dasharray:none;stroke-opacity:1"
       id="path5343"
       sodipodi:type="arc"
       sodipodi:cx="25.763626"
       sodipodi:cy="165.05637"
       sodipodi:rx="6.2366071"
       sodipodi:ry="6.5200896"
       sodipodi:start="0"
       sodipodi:end="6.2745395"
       sodipodi:open="true"
       d="m 32.000233,165.05637 a 6.2366071,6.5200896 0 0 1 -6.223127,6.52007 6.2366071,6.5200896 0 0 1 -6.250029,-6.49189 6.2366071,6.5200896 0 0 1 6.196109,-6.54814 A 6.2366071,6.5200896 0 0 1 32,165" />
    <path
       style="opacity:1;fill:none;fill-opacity:1;stroke:#2303e5;stroke-width:0.65099996;stroke-miterlimit:4;stroke-dasharray:none;stroke-opacity:1"
       id="path5343-4"
       sodipodi:type="arc"
       sodipodi:cx="29.293156"
       sodipodi:cy="146.56548"
       sodipodi:rx="6.2366071"
       sodipodi:ry="6.5200896"
       sodipodi:start="0"
       sodipodi:end="6.2745395"
       sodipodi:open="true"
       d="m 35.529763,146.56548 a 6.2366071,6.5200896 0 0 1 -6.223127,6.52007 6.2366071,6.5200896 0 0 1 -6.250029,-6.49189 6.2366071,6.5200896 0 0 1 6.196109,-6.54814 6.2366071,6.5200896 0 0 1 6.276814,6.46358" />
    <path
       style="opacity:1;fill:none;fill-opacity:1;stroke:#010000;stroke-width:0.65099996;stroke-miterlimit:4;stroke-dasharray:none;stroke-opacity:1"
       id="path5343-4-5"
       sodipodi:type="arc"
       sodipodi:cx="49.763626"
       sodipodi:cy="165.05637"
       sodipodi:rx="6.2366071"
       sodipodi:ry="6.5200896"
       sodipodi:start="0"
       sodipodi:end="6.2745395"
       sodipodi:open="true"
       d="m 56.000233,165.05637 a 6.2366071,6.5200896 0 0 1 -6.223127,6.52007 6.2366071,6.5200896 0 0 1 -6.250029,-6.49189 6.2366071,6.5200896 0 0 1 6.196109,-6.54814 A 6.2366071,6.5200896 0 0 1 56,165" />
    <path
       style="fill:none;stroke:#000000;stroke-width:0.26458332px;stroke-linecap:butt;stroke-linejoin:miter;stroke-opacity:1"
       d="M 79.999998,205 88,197 h 16 v 8 z"
       id="path5389"
       inkscape:connector-curvature="0" />
    <path
       style="fill:none;stroke:#000000;stroke-width:0.26458332px;stroke-linecap:butt;stroke-linejoin:miter;stroke-opacity:1"
       d="m 104,229 8,-8 v -16 h -8 z"
       id="path5391"
       inkscape:connector-curvature="0" />
  </g>
</svg>
